# xmcd
#
# Track frame offsets:
#	150
#	15123
#	32224
#	48449
#	62785
#	85865
#	99856
#	114926
#	132151
#	147309
#	163037
#	182578
#	200249
#	218379
#	232858
#	248823
#	262898
#	281774
#	298860
#	313996
#
# Disc length: 4464 seconds
#
# Revision: 1
# Processed by: cddbd v1.5.1PL0 Copyright (c) Steve Scherf et al.
# Submitted via: audiograbber 1.83.01
#
DISCID=18116e14
DTITLE=Chantal Hamel - Volume 9
DYEAR=2005
DGENRE=Québécois
TTITLE0=Danser danser danser
TTITLE1=L'histoire de mon voisin
TTITLE2=Prends le temps
TTITLE3=Ti-loup
TTITLE4=Amour fidelite
TTITLE5=Parti te souler
TTITLE6=He ride on the highway
TTITLE7=Ne m'oublie pas
TTITLE8=Le petit gars a sa mere
TTITLE9=Ces mots d'amour
TTITLE10=Le shack a mon grand-pere
TTITLE11=On l'a l'affaire
TTITLE12=Les nuits sont longues
TTITLE13=Roulons roulez
TTITLE14=Ce vieil homme
TTITLE15=Riva tequila
TTITLE16=Au bord de la mer
TTITLE17=Rock'n roll country
TTITLE18=Hey le smath
TTITLE19=Mon heritage
EXTD=
EXTT0=
EXTT1=
EXTT2=
EXTT3=
EXTT4=
EXTT5=
EXTT6=
EXTT7=
EXTT8=
EXTT9=
EXTT10=
EXTT11=
EXTT12=
EXTT13=
EXTT14=
EXTT15=
EXTT16=
EXTT17=
EXTT18=
EXTT19=
PLAYORDER=
